<svg width="18" height="18" viewBox="0 0 18 18" fill="none" xmlns="http://www.w3.org/2000/svg">
<path d="M18 1.00459C18 0.723336 17.8795 0.482265 17.6786 0.281372C17.4777 0.120658 17.2366 0.00012207 16.9955 0.00012207H1.00446C0.683036 0.00012207 0.441964 0.120658 0.28125 0.281372C0.0803571 0.482265 0 0.723336 0 1.00459V16.9957C0 17.2769 0.0803571 17.518 0.28125 17.7189C0.441964 17.9198 0.683036 18.0001 1.00446 18.0001H9.60268V11.0091H7.27232V8.31709H9.60268V6.30816C9.60268 5.18316 9.92411 4.29923 10.567 3.65637C11.2098 3.05369 12.0536 2.73226 13.0982 2.73226C13.9018 2.73226 14.625 2.77244 15.1875 2.81262V5.26351H13.7411C13.2188 5.26351 12.8571 5.38405 12.6562 5.62512C12.4955 5.82601 12.4152 6.14744 12.4152 6.58941V8.31709H15.1071L14.7455 11.0091H12.4152V18.0001H16.9955C17.2768 18.0001 17.5179 17.9198 17.7188 17.7189C17.8795 17.518 18 17.2769 18 16.9957V1.00459Z" fill="white"/>
</svg>
