<svg width="19" height="18" viewBox="0 0 19 18" fill="none" xmlns="http://www.w3.org/2000/svg">
<path d="M9.39941 4.37959C10.203 4.37959 10.9664 4.62066 11.6896 5.02244C12.4128 5.42423 12.9753 5.98673 13.3771 6.70994C13.7789 7.43316 14.0199 8.19655 14.0199 9.00012C14.0199 9.84387 13.7789 10.6073 13.3771 11.3305C12.9753 12.0537 12.4128 12.6162 11.6896 13.018C10.9664 13.4198 10.203 13.6207 9.39941 13.6207C8.55566 13.6207 7.79227 13.4198 7.06906 13.018C6.34584 12.6162 5.78334 12.0537 5.38156 11.3305C4.97977 10.6073 4.77888 9.84387 4.77888 9.00012C4.77888 8.19655 4.97977 7.43316 5.38156 6.70994C5.78334 5.98673 6.34584 5.42423 7.06906 5.02244C7.79227 4.62066 8.55566 4.37959 9.39941 4.37959ZM9.39941 12.0135C10.203 12.0135 10.9262 11.7323 11.5289 11.1296C12.0914 10.5671 12.4128 9.84387 12.4128 9.00012C12.4128 8.19655 12.0914 7.47334 11.5289 6.87066C10.9262 6.30816 10.203 5.98673 9.39941 5.98673C8.55566 5.98673 7.83245 6.30816 7.26995 6.87066C6.66727 7.47334 6.38602 8.19655 6.38602 9.00012C6.38602 9.84387 6.66727 10.5671 7.26995 11.1296C7.83245 11.7323 8.55566 12.0135 9.39941 12.0135ZM15.3057 4.17869C15.3057 3.89744 15.1851 3.65637 14.9842 3.4153C14.7432 3.21441 14.5021 3.09387 14.2208 3.09387C13.8994 3.09387 13.6583 3.21441 13.4574 3.4153C13.2164 3.65637 13.136 3.89744 13.136 4.17869C13.136 4.50012 13.2164 4.74119 13.4574 4.94209C13.6583 5.18316 13.8994 5.26351 14.2208 5.26351C14.5021 5.26351 14.7432 5.18316 14.9441 4.94209C15.1449 4.74119 15.2655 4.50012 15.3057 4.17869ZM18.3592 5.26351C18.3592 6.02691 18.3994 7.27244 18.3994 9.00012C18.3994 10.768 18.3592 12.0135 18.3191 12.7769C18.2789 13.5403 18.1583 14.1832 17.9976 14.7457C17.7566 15.4287 17.3548 16.0314 16.8726 16.5135C16.3905 16.9957 15.7878 17.3573 15.1449 17.5983C14.5824 17.7992 13.8994 17.9198 13.136 17.9599C12.3726 18.0001 11.1271 18.0001 9.39941 18.0001C7.63156 18.0001 6.38602 18.0001 5.62263 17.9599C4.85924 17.9198 4.21638 17.7992 3.65388 17.5582C2.97084 17.3573 2.36816 16.9957 1.88602 16.5135C1.40388 16.0314 1.04227 15.4287 0.8012 14.7457C0.600307 14.1832 0.479771 13.5403 0.439593 12.7769C0.399414 12.0135 0.399414 10.768 0.399414 9.00012C0.399414 7.27244 0.399414 6.02691 0.439593 5.26351C0.479771 4.50012 0.600307 3.81709 0.8012 3.25459C1.04227 2.61173 1.40388 2.00905 1.88602 1.52691C2.36816 1.04476 2.97084 0.642979 3.65388 0.401908C4.21638 0.241194 4.85924 0.120658 5.62263 0.0804792C6.38602 0.0403006 7.63156 0.00012207 9.39941 0.00012207C11.1271 0.00012207 12.3726 0.0403006 13.136 0.0804792C13.8994 0.120658 14.5824 0.241194 15.1449 0.401908C15.7878 0.642979 16.3905 1.04476 16.8726 1.52691C17.3548 2.00905 17.7566 2.61173 17.9976 3.25459C18.1583 3.81709 18.2789 4.50012 18.3592 5.26351ZM16.4307 14.3037C16.5914 13.8617 16.6717 13.1385 16.7521 12.1341C16.7521 11.5716 16.7923 10.7278 16.7923 9.64298V8.35727C16.7923 7.27244 16.7521 6.42869 16.7521 5.86619C16.6717 4.86173 16.5914 4.13851 16.4307 3.69655C16.1092 2.89298 15.5066 2.2903 14.703 1.96887C14.261 1.80816 13.5378 1.7278 12.5333 1.64744C11.9307 1.64744 11.0869 1.60726 10.0423 1.60726H8.75656C7.67174 1.60726 6.82799 1.64744 6.26549 1.64744C5.26102 1.7278 4.53781 1.80816 4.09584 1.96887C3.25209 2.2903 2.68959 2.89298 2.36816 3.69655C2.20745 4.13851 2.08691 4.86173 2.04674 5.86619C2.00656 6.46887 2.00656 7.31262 2.00656 8.35727V9.64298C2.00656 10.7278 2.00656 11.5716 2.04674 12.1341C2.08691 13.1385 2.20745 13.8617 2.36816 14.3037C2.68959 15.1474 3.29227 15.7099 4.09584 16.0314C4.53781 16.1921 5.26102 16.3126 6.26549 16.3528C6.82799 16.393 7.67174 16.393 8.75656 16.393H10.0423C11.1271 16.393 11.9708 16.393 12.5333 16.3528C13.5378 16.3126 14.261 16.1921 14.703 16.0314C15.5066 15.7099 16.1092 15.1073 16.4307 14.3037Z" fill="white"/>
</svg>
